<?xml version="1.0" encoding="UTF-8"?>
<svg width="289px" height="47px" viewBox="0 0 289 47" version="1.1" xmlns="http://www.w3.org/2000/svg" xmlns:xlink="http://www.w3.org/1999/xlink">
    <!-- Generator: Sketch 51.2 (57519) - http://www.bohemiancoding.com/sketch -->
    <title>Group 2</title>
    <desc>Created with Sketch.</desc>
    <defs></defs>
    <g id="Page-1" stroke="none" stroke-width="1" fill="none" fill-rule="evenodd">
        <g id="Group-2" fill="#546DE5">
            <path d="M5.512,38.384 C5.38399936,39.109337 5.32,39.7066643 5.32,40.176 C5.32,40.9866707 5.45866528,41.5733315 5.736,41.936 C6.01333472,42.2986685 6.38666432,42.48 6.856,42.48 C7.7093376,42.48 8.42399712,42.4266672 9,42.32 C9.57600288,42.2133328 10.2693293,42.0106682 11.08,41.712 L11.08,45.36 C10.6959981,45.5733344 10.2480026,45.7546659 9.736,45.904 C9.22399744,46.0533341 8.701336,46.1706662 8.168,46.256 C7.634664,46.3413338 7.101336,46.4159997 6.568,46.48 C6.034664,46.5440003 5.5546688,46.576 5.128,46.576 C3.6346592,46.576 2.44000448,46.2346701 1.544,45.552 C0.64799552,44.8693299 0.2,43.6106758 0.2,41.776 C0.2,40.9226624 0.32799872,39.8773395 0.584,38.64 L8.52,1.2 L13.32,1.2 L5.512,38.384 Z M40.8617143,33.392 C40.5203793,34.9706746 40.2857149,36.5706586 40.1577143,38.192 C40.0297137,39.8133414 39.9657143,41.327993 39.9657143,42.736 L39.9657143,44.56 C39.9657143,45.1360029 40.0083805,45.6586643 40.0937143,46.128 L36.5097143,46.128 L35.6137143,40.56 L35.3577143,40.56 C34.8457117,41.285337 34.2163847,42.0213296 33.4697143,42.768 C32.7230439,43.5146704 31.9017188,44.1866637 31.0057143,44.784 C30.1097098,45.3813363 29.1497194,45.8613315 28.1257143,46.224 C27.1017092,46.5866685 26.0137201,46.768 24.8617143,46.768 C19.7843556,46.768 17.2457143,43.4613664 17.2457143,36.848 C17.2457143,34.1173197 17.5977108,31.3440141 18.3017143,28.528 C19.0057178,25.7119859 20.0937069,23.1733446 21.5657143,20.912 C23.0377217,18.6506554 24.9363693,16.7946739 27.2617143,15.344 C29.5870593,13.8933261 32.3923645,13.168 35.6777143,13.168 C36.8723869,13.168 38.3337057,13.3066653 40.0617143,13.584 C41.7897229,13.8613347 43.4003735,14.2346643 44.8937143,14.704 L40.8617143,33.392 Z M26.3337143,42.672 C27.3577194,42.672 28.3390429,42.4266691 29.2777143,41.936 C30.2163857,41.4453309 31.1017101,40.837337 31.9337143,40.112 C32.7657185,39.386663 33.5017111,38.6080042 34.1417143,37.776 C34.7817175,36.9439958 35.2937124,36.165337 35.6777143,35.44 L39.2617143,18.16 C37.9817079,17.5626637 36.3603908,17.264 34.3977143,17.264 C32.4350378,17.264 30.7070551,17.8399942 29.2137143,18.992 C27.7203735,20.1440058 26.4617194,21.6479907 25.4377143,23.504 C24.4137092,25.3600093 23.6457169,27.4613216 23.1337143,29.808 C22.6217117,32.1546784 22.3657143,34.5013216 22.3657143,36.848 C22.3657143,38.4693414 22.6857111,39.8453277 23.3257143,40.976 C23.9657175,42.1066723 24.9683741,42.672 26.3337143,42.672 Z M68.7874286,18.224 C68.4034267,18.1386662 68.008764,18.0746669 67.6034286,18.032 C67.1980932,17.9893331 66.8247636,17.968 66.4834286,17.968 C64.3074177,17.968 62.4301032,18.6506598 60.8514286,20.016 C59.272754,21.3813402 58.0354331,23.0453235 57.1394286,25.008 L52.7234286,46 L47.9234286,46 L54.7074286,14 L58.0354286,14 L58.0354286,19.504 L58.2914286,19.504 C58.8034312,18.6933293 59.3580923,17.9360035 59.9554286,17.232 C60.5527649,16.5279965 61.2140916,15.8986694 61.9394286,15.344 C62.6647656,14.7893306 63.454091,14.3520016 64.3074286,14.032 C65.1607662,13.7119984 66.0994235,13.552 67.1234286,13.552 C68.0621,13.552 69.0434235,13.7013318 70.0674286,14 L68.7874286,18.224 Z M93.1291429,33.392 C92.7878079,34.9706746 92.5531435,36.5706586 92.4251429,38.192 C92.2971423,39.8133414 92.2331429,41.327993 92.2331429,42.736 L92.2331429,44.56 C92.2331429,45.1360029 92.2758091,45.6586643 92.3611429,46.128 L88.7771429,46.128 L87.8811429,40.56 L87.6251429,40.56 C87.1131403,41.285337 86.4838133,42.0213296 85.7371429,42.768 C84.9904725,43.5146704 84.1691474,44.1866637 83.2731429,44.784 C82.3771384,45.3813363 81.417148,45.8613315 80.3931429,46.224 C79.3691378,46.5866685 78.2811487,46.768 77.1291429,46.768 C72.0517842,46.768 69.5131429,43.4613664 69.5131429,36.848 C69.5131429,34.1173197 69.8651394,31.3440141 70.5691429,28.528 C71.2731464,25.7119859 72.3611355,23.1733446 73.8331429,20.912 C75.3051503,18.6506554 77.2037979,16.7946739 79.5291429,15.344 C81.8544879,13.8933261 84.6597931,13.168 87.9451429,13.168 C89.1398155,13.168 90.6011343,13.3066653 92.3291429,13.584 C94.0571515,13.8613347 95.6678021,14.2346643 97.1611429,14.704 L93.1291429,33.392 Z M78.6011429,42.672 C79.625148,42.672 80.6064715,42.4266691 81.5451429,41.936 C82.4838143,41.4453309 83.3691387,40.837337 84.2011429,40.112 C85.0331471,39.386663 85.7691397,38.6080042 86.4091429,37.776 C87.0491461,36.9439958 87.561141,36.165337 87.9451429,35.44 L91.5291429,18.16 C90.2491365,17.5626637 88.6278194,17.264 86.6651429,17.264 C84.7024664,17.264 82.9744837,17.8399942 81.4811429,18.992 C79.9878021,20.1440058 78.729148,21.6479907 77.7051429,23.504 C76.6811378,25.3600093 75.9131455,27.4613216 75.4011429,29.808 C74.8891403,32.1546784 74.6331429,34.5013216 74.6331429,36.848 C74.6331429,38.4693414 74.9531397,39.8453277 75.5931429,40.976 C76.2331461,42.1066723 77.2358027,42.672 78.6011429,42.672 Z" id="lara" fill-opacity="0.7"></path>
            <path d="M116.112,46 L119.76,28.592 C120.016001,27.3973274 120.218666,26.3413379 120.368,25.424 C120.517334,24.5066621 120.592,23.685337 120.592,22.96 C120.592,20.9973235 119.845341,20.016 118.352,20.016 C117.626663,20.016 116.901337,20.2079981 116.176,20.592 C115.450663,20.9760019 114.77867,21.4666637 114.16,22.064 C113.54133,22.6613363 112.965336,23.3119965 112.432,24.016 C111.898664,24.7200035 111.461335,25.3919968 111.12,26.032 L107.024,46 L99.152,46 L105.936,14 L112.08,14 L111.696,19.632 L111.952,19.632 C112.592003,18.9493299 113.28533,18.2240038 114.032,17.456 C114.77867,16.6879962 115.621329,15.9840032 116.56,15.344 C117.498671,14.7039968 118.543994,14.1706688 119.696,13.744 C120.848006,13.3173312 122.10666,13.104 123.472,13.104 C125.178675,13.104 126.469329,13.7226605 127.344,14.96 C128.218671,16.1973395 128.613334,17.8399898 128.528,19.888 C129.168003,19.0773293 129.903996,18.2666707 130.736,17.456 C131.568004,16.6453293 132.463995,15.9200032 133.424,15.28 C134.384005,14.6399968 135.407995,14.1173354 136.496,13.712 C137.584005,13.3066646 138.703994,13.104 139.856,13.104 C141.818676,13.104 143.322661,13.5626621 144.368,14.48 C145.413339,15.3973379 145.936,17.1146541 145.936,19.632 C145.936,21.4666758 145.616003,23.8559853 144.976,26.8 L140.944,46 L133.072,46 L136.848,28.016 C137.061334,27.0346618 137.231999,26.1173376 137.36,25.264 C137.488001,24.4106624 137.552,23.6640032 137.552,23.024 C137.552,22.0426618 137.370668,21.2960026 137.008,20.784 C136.645332,20.2719974 136.037338,20.016 135.184,20.016 C134.50133,20.016 133.808004,20.2186646 133.104,20.624 C132.399996,21.0293354 131.728003,21.5413302 131.088,22.16 C130.447997,22.7786698 129.861336,23.450663 129.328,24.176 C128.794664,24.901337 128.378668,25.5839968 128.08,26.224 L123.984,46 L116.112,46 Z M172.901714,42.928 C171.579041,44.0373389 169.872391,44.9759962 167.781714,45.744 C165.691037,46.5120038 163.259062,46.896 160.485714,46.896 C157.029697,46.896 154.309724,45.8826768 152.325714,43.856 C150.341704,41.8293232 149.349714,39.0026848 149.349714,35.376 C149.349714,31.9626496 149.883042,28.8800138 150.949714,26.128 C152.016386,23.3759862 153.413706,21.0400096 155.141714,19.12 C156.869723,17.1999904 158.821703,15.7173386 160.997714,14.672 C163.173725,13.6266614 165.349703,13.104 167.525714,13.104 C169.275056,13.104 170.779041,13.3279978 172.037714,13.776 C173.296387,14.2240022 174.331044,14.8426627 175.141714,15.632 C175.952385,16.4213373 176.549712,17.3279949 176.933714,18.352 C177.317716,19.3760051 177.509714,20.4639942 177.509714,21.616 C177.509714,23.3653421 177.061719,24.9013267 176.165714,26.224 C175.26971,27.5466733 174.021722,28.645329 172.421714,29.52 C170.821706,30.394671 168.891059,31.0559978 166.629714,31.504 C164.36837,31.9520022 161.893728,32.176 159.205714,32.176 C158.864379,32.176 158.544382,32.1653334 158.245714,32.144 C157.947046,32.1226666 157.627049,32.112 157.285714,32.112 C157.200381,32.6240026 157.136381,33.0826646 157.093714,33.488 C157.051047,33.8933354 157.029714,34.266665 157.029714,34.608 C157.029714,36.5280096 157.531043,37.9573286 158.533714,38.896 C159.536386,39.8346714 160.955038,40.304 162.789714,40.304 C164.667057,40.304 166.352373,40.0266694 167.845714,39.472 C169.339055,38.9173306 170.46971,38.3626694 171.237714,37.808 L172.901714,42.928 Z M158.437714,27.12 C159.632387,27.12 160.901708,27.0773338 162.245714,26.992 C163.589721,26.9066662 164.837709,26.7040016 165.989714,26.384 C167.14172,26.0639984 168.10171,25.5946698 168.869714,24.976 C169.637718,24.3573302 170.021714,23.514672 170.021714,22.448 C170.021714,21.8079968 169.78705,21.1573366 169.317714,20.496 C168.848379,19.8346634 167.867055,19.504 166.373714,19.504 C164.496372,19.504 162.864388,20.2293261 161.477714,21.68 C160.091041,23.1306739 159.077718,24.9439891 158.437714,27.12 Z M181.819429,14 L185.979429,14 L187.259429,7.984 L195.643429,5.616 L193.851429,14 L201.339429,14 L199.867429,20.592 L192.443429,20.592 L189.307429,35.056 C189.051427,36.2080058 188.923429,37.146663 188.923429,37.872 C188.923429,38.8106714 189.13676,39.450665 189.563429,39.792 C189.990097,40.133335 190.630091,40.304 191.483429,40.304 C192.294099,40.304 193.030092,40.2186675 193.691429,40.048 C194.352765,39.8773325 195.046092,39.6000019 195.771429,39.216 L195.771429,45.104 C195.302093,45.3600013 194.736765,45.6053322 194.075429,45.84 C193.414092,46.0746678 192.699432,46.2666659 191.931429,46.416 C191.163425,46.5653341 190.374099,46.6826662 189.563429,46.768 C188.752758,46.8533338 188.006099,46.896 187.323429,46.896 C185.147418,46.896 183.472768,46.3946717 182.299429,45.392 C181.126089,44.3893283 180.539429,42.8640102 180.539429,40.816 C180.539429,40.3893312 180.571428,39.9413357 180.635429,39.472 C180.699429,39.0026643 180.774095,38.5120026 180.859429,38 L184.571429,20.592 L180.283429,20.592 L181.819429,14 Z M212.049143,14 L212.113143,19.632 L212.369143,19.632 C213.307814,17.9253248 214.449136,16.4746726 215.793143,15.28 C217.13715,14.0853274 218.833133,13.488 220.881143,13.488 C221.777147,13.488 222.843803,13.658665 224.081143,14 L222.097143,20.848 C221.670474,20.7199994 221.265145,20.6133338 220.881143,20.528 C220.497141,20.4426662 220.091812,20.4 219.665143,20.4 C217.915801,20.4 216.30515,20.9653277 214.833143,22.096 C213.361136,23.2266723 212.241147,24.5386592 211.473143,26.032 L207.313143,46 L199.441143,46 L206.225143,14 L212.049143,14 Z M228.838857,14 L236.710857,14 L229.926857,46 L222.054857,46 L228.838857,14 Z M230.118857,4.912 C230.118857,3.50399296 230.577519,2.41600384 231.494857,1.648 C232.412195,0.87999616 233.57485,0.496 234.982857,0.496 C236.348197,0.496 237.510852,0.87999616 238.470857,1.648 C239.430862,2.41600384 239.910857,3.50399296 239.910857,4.912 C239.910857,6.27734016 239.430862,7.35466272 238.470857,8.144 C237.510852,8.93333728 236.348197,9.328 234.982857,9.328 C233.57485,9.328 232.412195,8.93333728 231.494857,8.144 C230.577519,7.35466272 230.118857,6.27734016 230.118857,4.912 Z M261.948572,21.232 C261.137901,20.7626643 260.295243,20.4426675 259.420572,20.272 C258.5459,20.1013325 257.596577,20.016 256.572571,20.016 C255.420566,20.016 254.300577,20.3893296 253.212571,21.136 C252.124566,21.8826704 251.143243,22.8639939 250.268572,24.08 C249.3939,25.2960061 248.700574,26.7146586 248.188571,28.336 C247.676569,29.9573414 247.420572,31.6213248 247.420572,33.328 C247.420572,35.5040109 247.8899,37.1573277 248.828571,38.288 C249.767243,39.4186723 251.004564,39.984 252.540571,39.984 C253.820578,39.984 255.004566,39.7813354 256.092571,39.376 C257.180577,38.9706646 258.151234,38.5120026 259.004571,38 L260.476571,43.376 C259.111231,44.4000051 257.521914,45.2426634 255.708572,45.904 C253.895229,46.5653366 252.09258,46.896 250.300571,46.896 C248.252561,46.896 246.513912,46.5973363 245.084572,46 C243.655231,45.4026637 242.492576,44.5920051 241.596571,43.568 C240.700567,42.5439949 240.03924,41.3706733 239.612572,40.048 C239.185903,38.7253267 238.972571,37.3386739 238.972571,35.888 C238.972571,32.3039821 239.484566,29.1040141 240.508572,26.288 C241.532577,23.4719859 242.88723,21.093343 244.572571,19.152 C246.257913,17.210657 248.177894,15.7173386 250.332571,14.672 C252.487249,13.6266614 254.695227,13.104 256.956571,13.104 C258.961915,13.104 260.551232,13.2959981 261.724572,13.68 C262.897911,14.0640019 263.9539,14.4906643 264.892572,14.96 L261.948572,21.232 Z M265.682286,38.512 C266.535623,38.9813357 267.634279,39.3973315 268.978286,39.76 C270.322293,40.1226685 271.740945,40.304 273.234286,40.304 C274.727627,40.304 275.868949,40.0160029 276.658286,39.44 C277.447623,38.8639971 277.863619,37.9786726 277.906286,36.784 C277.906286,35.9306624 277.650288,35.1946698 277.138286,34.576 C276.626283,33.9573302 275.975623,33.3706694 275.186286,32.816 C274.396949,32.2613306 273.55429,31.6960029 272.658286,31.12 C271.762281,30.5439971 270.919623,29.8826704 270.130286,29.136 C269.340949,28.3893296 268.690288,27.5040051 268.178286,26.48 C267.666283,25.4559949 267.410286,24.2186739 267.410286,22.768 C267.410286,21.359993 267.687616,20.0586726 268.242286,18.864 C268.796955,17.6693274 269.575614,16.6453376 270.578286,15.792 C271.580957,14.9386624 272.796945,14.2773357 274.226286,13.808 C275.655626,13.3386643 277.266277,13.104 279.058286,13.104 C281.532965,13.104 283.580944,13.2853315 285.202286,13.648 C286.823627,14.0106685 288.103614,14.4693306 289.042286,15.024 L286.866286,21.04 C286.012948,20.6559981 284.978292,20.3360013 283.762286,20.08 C282.54628,19.8239987 281.276959,19.696 279.954286,19.696 C278.588946,19.696 277.511623,19.9306643 276.722286,20.4 C275.932949,20.8693357 275.538286,21.6159949 275.538286,22.64 C275.538286,23.3226701 275.794283,23.930664 276.306286,24.464 C276.818288,24.997336 277.468949,25.5413306 278.258286,26.096 C279.047623,26.6506694 279.890281,27.2159971 280.786286,27.792 C281.68229,28.3680029 282.524949,29.0613293 283.314286,29.872 C284.103623,30.6826707 284.754283,31.6106614 285.266286,32.656 C285.778288,33.7013386 286.034286,34.9493261 286.034286,36.4 C286.034286,39.941351 284.882297,42.5759914 282.578286,44.304 C280.274274,46.0320086 277.202305,46.896 273.362286,46.896 C271.186275,46.896 269.191628,46.6933354 267.378286,46.288 C265.564943,45.8826646 264.167624,45.3813363 263.186286,44.784 L265.682286,38.512 Z" id="metrics"></path>
        </g>
    </g>
</svg>